<?xml version="1.0" encoding="UTF-8"?>
<svg width="56px" height="56px" viewBox="0 0 56 56" version="1.1" xmlns="http://www.w3.org/2000/svg" xmlns:xlink="http://www.w3.org/1999/xlink">
    <!-- Generator: Sketch 49.3 (51167) - http://www.bohemiancoding.com/sketch -->
    <title>Page 1</title>
    <desc>Created with Sketch.</desc>
    <defs></defs>
    <g id="Page-1" stroke="none" stroke-width="1" fill="none" fill-rule="evenodd">
        <g id="首页" transform="translate(-487.000000, -3371.000000)" fill="#1A347E">
            <g id="Group-23" transform="translate(487.000000, 3371.000000)">
                <g id="Page-1" transform="translate(5.000000, 7.000000)">
                    <path d="M27.6672158,4.80405989 C26.6174629,4.80405989 25.7634267,5.67477685 25.7634267,6.74805644 C25.7634267,7.81528938 26.6174629,8.68600633 27.6672158,8.68600633 C28.7169687,8.68600633 29.5710049,7.81528938 29.5710049,6.74805644 C29.5710049,5.67477685 28.7169687,4.80405989 27.6672158,4.80405989 Z M33.1057661,4.80405989 C32.0530478,4.80405989 31.2019769,5.67477685 31.2019769,6.74805644 C31.2019769,7.81528938 32.0530478,8.68600633 33.1057661,8.68600633 C34.1555189,8.68600633 35.0095552,7.81528938 35.0095552,6.74805644 C35.0095552,5.67477685 34.1555189,4.80405989 33.1057661,4.80405989 Z M38.5443163,4.80405989 C37.491598,4.80405989 36.6375618,5.67477685 36.6375618,6.74805644 C36.6375618,7.81528938 37.491598,8.68600633 38.5443163,8.68600633 C39.5911038,8.68600633 40.4481054,7.81528938 40.4481054,6.74805644 C40.4481054,5.67477685 39.5911038,4.80405989 38.5443163,4.80405989 Z M42.2836903,10.8114022 L2.71927512,10.8114022 L2.71927512,3.60380075 C2.71927512,3.14425569 3.08401977,2.77238699 3.53476112,2.77238699 L41.4652389,2.77238699 C41.9159802,2.77238699 42.2836903,3.14425569 42.2836903,3.60380075 L42.2836903,10.8114022 Z M42.2836903,38.3931759 C42.2836903,38.852721 41.9159802,39.227613 41.4652389,39.227613 L14.4800659,39.227613 L14.4800659,13.5837892 L42.2836903,13.5837892 L42.2836903,38.3931759 Z M11.7607908,39.227613 L3.53476112,39.227613 C3.08401977,39.227613 2.71927512,38.852721 2.71927512,38.3931759 L2.71927512,13.5837892 L11.7607908,13.5837892 L11.7607908,39.227613 Z M41.4652389,0 L3.53476112,0 C1.58649094,0 0,1.61445436 0,3.60380075 L0,38.3931759 C0,40.3825223 1.58649094,42 3.53476112,42 L41.4652389,42 C43.4164745,42 45,40.3825223 45,38.3931759 L45,3.60380075 C45,1.61445436 43.4164745,0 41.4652389,0 Z" id="Fill-1"></path>
                </g>
            </g>
        </g>
    </g>
</svg>