<?xml version="1.0" encoding="UTF-8"?>
<svg width="56px" height="58px" viewBox="0 0 56 58" version="1.1" xmlns="http://www.w3.org/2000/svg" xmlns:xlink="http://www.w3.org/1999/xlink">
    <!-- Generator: Sketch 49.3 (51167) - http://www.bohemiancoding.com/sketch -->
    <title>Page 1</title>
    <desc>Created with Sketch.</desc>
    <defs></defs>
    <g id="Page-1" stroke="none" stroke-width="1" fill="none" fill-rule="evenodd">
        <g id="首页" transform="translate(-784.000000, -3370.000000)" fill="#1A347E">
            <g id="Page-1" transform="translate(784.000000, 3370.072576)">
                <path d="M49,12.7856452 L49,16.5142702 C49,17.6249244 48.5091305,18.6190591 47.7405974,19.313218 C48.5091305,20.0048978 49,20.9990325 49,22.1096868 L49,25.8358326 C49,26.9464869 48.5091305,27.9381425 47.7405974,28.6347805 C48.5091305,29.3264603 49,30.3181159 49,31.4312492 L49,35.1573951 C49,36.2705285 48.5091305,37.2597049 47.7430766,37.9538638 C48.5091305,38.6480227 49,39.6396783 49,40.7503326 L49,44.4789576 C49,46.5663926 47.2993107,48.2670819 45.2118757,48.2670819 L11.7856452,48.2670819 C9.69821018,48.2670819 8,46.5663926 8,44.4789576 L8,40.7503326 C8,39.6396783 8.49086951,38.6480227 9.25692345,37.9538638 C8.49086951,37.2597049 8,36.2705285 8,35.1573951 L8,31.4312492 C8,30.3181159 8.49086951,29.3264603 9.25940259,28.6347805 C8.49086951,27.9381425 8,26.9464869 8,25.8358326 L8,22.1096868 C8,20.9990325 8.49086951,20.0048978 9.25940259,19.313218 C8.49086951,18.6190591 8,17.6249244 8,16.5142702 L8,12.7856452 C8,10.6982102 9.69821018,9 11.7856452,9 L45.2118757,9 C47.2993107,9 49,10.6982102 49,12.7856452 Z M47.019168,16.5142702 L47.019168,12.7856452 C47.019168,11.7915105 46.2084895,10.980832 45.2118757,10.980832 L11.7856452,10.980832 C10.7890313,10.980832 9.97835288,11.7915105 9.97835288,12.7856452 L9.97835288,16.5142702 C9.97835288,17.510884 10.7890313,18.3215625 11.7856452,18.3215625 L45.2118757,18.3215625 C46.2084895,18.3215625 47.019168,17.510884 47.019168,16.5142702 Z M38.9037066,13.454021 C39.5631576,13.454021 40.0986516,13.9919942 40.0986516,14.648966 C40.0986516,15.308417 39.5631576,15.8463901 38.9037066,15.8463901 C38.2442557,15.8463901 37.7087616,15.308417 37.7087616,14.648966 C37.7087616,13.9919942 38.2442557,13.454021 38.9037066,13.454021 Z M42.5014331,13.454021 C43.1633632,13.454021 43.6988572,13.9919942 43.6988572,14.648966 C43.6988572,15.308417 43.1633632,15.8463901 42.5014331,15.8463901 C41.8419821,15.8463901 41.3064881,15.308417 41.3064881,14.648966 C41.3064881,13.9919942 41.8419821,13.454021 42.5014331,13.454021 Z M47.019168,25.8358326 L47.019168,22.1096868 C47.019168,21.1105938 46.2084895,20.2999153 45.2118757,20.2999153 L11.7856452,20.2999153 C10.7890313,20.2999153 9.97835288,21.1105938 9.97835288,22.1096868 L9.97835288,25.8358326 C9.97835288,26.8324465 10.7890313,27.6431249 11.7856452,27.6431249 L45.2118757,27.6431249 C46.2084895,27.6431249 47.019168,26.8324465 47.019168,25.8358326 Z M38.9037066,22.7750877 C39.5631576,22.7750877 40.0986516,23.3130608 40.0986516,23.9700327 C40.0986516,24.6319628 39.5631576,25.1699359 38.9037066,25.1699359 C38.2442557,25.1699359 37.7087616,24.6319628 37.7087616,23.9700327 C37.7087616,23.3130608 38.2442557,22.7750877 38.9037066,22.7750877 Z M42.5014331,22.7750877 C43.1633632,22.7750877 43.6988572,23.3130608 43.6988572,23.9700327 C43.6988572,24.6319628 43.1633632,25.1699359 42.5014331,25.1699359 C41.8419821,25.1699359 41.3064881,24.6319628 41.3064881,23.9700327 C41.3064881,23.3130608 41.8419821,22.7750877 42.5014331,22.7750877 Z M34.2868061,22.9833353 C34.8322167,22.9833353 35.2759826,23.4271012 35.2759826,23.9700327 C35.2759826,24.5154432 34.8322167,24.9616882 34.2868061,24.9616882 L13.945471,24.9616882 C13.4000605,24.9616882 12.9562946,24.5154432 12.9562946,23.9700327 C12.9562946,23.4271012 13.4000605,22.9833353 13.945471,22.9833353 L34.2868061,22.9833353 Z M47.019168,35.1573951 L47.019168,31.4312492 C47.019168,30.4321562 46.2084895,29.6214778 45.2118757,29.6214778 L11.7856452,29.6214778 C10.7890313,29.6214778 9.97835288,30.4321562 9.97835288,31.4312492 L9.97835288,35.1573951 C9.97835288,36.1540089 10.7890313,36.9646874 11.7856452,36.9646874 L45.2118757,36.9646874 C46.2084895,36.9646874 47.019168,36.1540089 47.019168,35.1573951 Z M38.9037066,32.0959064 C39.5631576,32.0959064 40.0986516,32.6338796 40.0986516,33.2933305 C40.0986516,33.9527815 39.5631576,34.4907546 38.9037066,34.4907546 C38.2442557,34.4907546 37.7087616,33.9527815 37.7087616,33.2933305 C37.7087616,32.6338796 38.2442557,32.0959064 38.9037066,32.0959064 Z M42.5014331,32.0959064 C43.1633632,32.0959064 43.6988572,32.6338796 43.6988572,33.2933305 C43.6988572,33.9527815 43.1633632,34.4907546 42.5014331,34.4907546 C41.8419821,34.4907546 41.3064881,33.9527815 41.3064881,33.2933305 C41.3064881,32.6338796 41.8419821,32.0959064 42.5014331,32.0959064 Z M47.019168,44.4789576 L47.019168,40.7503326 C47.019168,39.7561978 46.2084895,38.9455194 45.2118757,38.9455194 L11.7856452,38.9455194 C10.7890313,38.9455194 9.97835288,39.7561978 9.97835288,40.7503326 L9.97835288,44.4789576 C9.97835288,45.4755714 10.7890313,46.2862498 11.7856452,46.2862498 L45.2118757,46.2862498 C46.2084895,46.2862498 47.019168,45.4755714 47.019168,44.4789576 Z M38.9037066,41.4194522 C39.5631576,41.4194522 40.0986516,41.9574253 40.0986516,42.6143971 C40.0986516,43.2738481 39.5631576,43.8118213 38.9037066,43.8118213 C38.2442557,43.8118213 37.7087616,43.2738481 37.7087616,42.6143971 C37.7087616,41.9574253 38.2442557,41.4194522 38.9037066,41.4194522 Z M42.5014331,41.4194522 C43.1633632,41.4194522 43.6988572,41.9574253 43.6988572,42.6143971 C43.6988572,43.2738481 43.1633632,43.8118213 42.5014331,43.8118213 C41.8419821,43.8118213 41.3064881,43.2738481 41.3064881,42.6143971 C41.3064881,41.9574253 41.8419821,41.4194522 42.5014331,41.4194522 Z M34.2868061,13.6597896 C34.8322167,13.6597896 35.2759826,14.1060346 35.2759826,14.648966 C35.2759826,15.1943766 34.8322167,15.6406216 34.2868061,15.6406216 L13.945471,15.6406216 C13.4000605,15.6406216 12.9562946,15.1943766 12.9562946,14.648966 C12.9562946,14.1060346 13.4000605,13.6597896 13.945471,13.6597896 L34.2868061,13.6597896 Z M34.2868061,32.3041541 C34.8322167,32.3041541 35.2759826,32.7503991 35.2759826,33.2933305 C35.2759826,33.8387411 34.8322167,34.282507 34.2868061,34.282507 L13.945471,34.282507 C13.4000605,34.282507 12.9562946,33.8387411 12.9562946,33.2933305 C12.9562946,32.7503991 13.4000605,32.3041541 13.945471,32.3041541 L34.2868061,32.3041541 Z M34.2868061,41.6252207 C34.8322167,41.6252207 35.2759826,42.0714657 35.2759826,42.6143971 C35.2759826,43.1598077 34.8322167,43.6060527 34.2868061,43.6060527 L13.945471,43.6060527 C13.4000605,43.6060527 12.9562946,43.1598077 12.9562946,42.6143971 C12.9562946,42.0714657 13.4000605,41.6252207 13.945471,41.6252207 L34.2868061,41.6252207 Z" id="Combined-Shape"></path>
            </g>
        </g>
    </g>
</svg>