<?xml version="1.0" encoding="UTF-8"?>
<svg width="56px" height="56px" viewBox="0 0 56 56" version="1.1" xmlns="http://www.w3.org/2000/svg" xmlns:xlink="http://www.w3.org/1999/xlink">
    <!-- Generator: Sketch 49.3 (51167) - http://www.bohemiancoding.com/sketch -->
    <title>Page 1</title>
    <desc>Created with Sketch.</desc>
    <defs></defs>
    <g id="Page-1" stroke="none" stroke-width="1" fill="none" fill-rule="evenodd">
        <g id="首页" transform="translate(-1080.000000, -3371.000000)" fill="#1A347E">
            <g id="Group-25" transform="translate(1080.000000, 3371.000000)">
                <g id="Page-1" transform="translate(6.000000, 6.000000)">
                    <path d="M7.08128167,32.9498359 C8.5775748,32.2679808 10.4147955,33.4260522 10.3471511,35.1956285 C10.3471511,36.4889886 9.2594299,37.5794156 7.96336406,37.5794156 C6.67270976,37.5794156 5.58228276,36.556633 5.58228276,35.1956285 C5.58228276,34.1728459 6.1964935,33.3557021 7.08128167,32.9498359 Z M8.23583552,10.3471511 C6.94247545,10.3471511 5.85475422,9.2594299 5.85475422,7.96336406 C5.85475422,6.67270976 6.94247545,5.58228276 8.23583552,5.58228276 C9.25861817,5.58228276 10.075762,6.12614337 10.4843339,7.07857589 C11.0985446,8.5775748 10.0054119,10.3471511 8.23583552,10.3471511 Z M4.83251273,21.7173555 C4.83251273,23.0783599 3.67444137,24.1660811 2.38378707,24.0984368 C1.08772123,24.0984368 0,23.0783599 0,21.7173555 C0,20.4212896 1.08772123,19.3335684 2.45143143,19.3335684 C3.7447915,19.3335684 4.83251273,20.4212896 4.83251273,21.7173555 Z M21.7833764,38.5992219 C23.0794422,38.5992219 24.1671635,39.6869431 24.1671635,40.983009 C24.1671635,42.2736633 23.0794422,43.3640903 21.7833764,43.3640903 C20.4900163,43.3640903 19.4022951,42.2736633 19.4022951,40.983009 C19.4022951,39.6869431 20.422372,38.5992219 21.7833764,38.5992219 Z M21.7833764,4.83251273 C20.422372,4.83251273 19.4022951,3.7447915 19.4699394,2.38378707 C19.4699394,1.02007687 20.5603664,0 21.8510207,0 C23.2147309,0.0676443551 24.2348078,1.15807136 24.2348078,2.44872565 C24.2348078,3.7447915 23.1470866,4.83251273 21.7833764,4.83251273 Z M35.2646258,32.9498359 C36.5579858,32.9498359 37.6457071,34.0375572 37.6457071,35.3309172 C37.6457071,36.6242773 36.6256302,37.7147043 35.2646258,37.7147043 C33.9685599,37.7147043 32.8808387,36.6242773 32.8808387,35.3309172 C32.8808387,34.0375572 33.9685599,32.9498359 35.2646258,32.9498359 Z M35.5368267,10.5506254 C34.2407608,10.5506254 33.0853952,9.46290412 33.2233897,8.16954405 C33.2233897,6.87618398 34.3111109,5.78575698 35.6017652,5.78575698 C36.8978311,5.78575698 37.9855523,6.87618398 37.9855523,8.16954405 C37.9855523,9.39255399 36.8978311,10.5506254 35.5368267,10.5506254 Z M41.1862126,19.333839 C42.4822785,19.333839 43.5699997,20.4215602 43.5699997,21.7176261 C43.5699997,23.0082804 42.4822785,24.0987074 41.1862126,24.0987074 C39.8928526,24.0987074 38.8024255,23.0786305 38.8024255,21.7176261 C38.8024255,20.4215602 39.8252082,19.333839 41.1862126,19.333839 Z M28.2204132,31.1172151 L26.9486993,29.9726726 C26.2506096,30.4164196 25.4280542,30.7329951 24.5378545,30.9900437 L24.4729159,32.700093 C24.4729159,33.0843129 24.1563404,33.3386557 23.8397648,33.3386557 L20.4115489,33.3386557 C20.0922675,33.3386557 19.7756919,33.0193743 19.7756919,32.700093 L19.7107533,30.9900437 C18.888198,30.7329951 18.0602311,30.4164196 17.2999085,29.9726726 L16.0309004,31.1172151 C15.7738519,31.3688521 15.3950435,31.3688521 15.1407007,31.1172151 L12.7271501,28.7036645 C12.4755131,28.4466159 12.4755131,28.0678075 12.7271501,27.8134648 L13.8716926,26.5444567 C13.4252399,25.7814283 13.0464315,24.9561672 12.8543215,24.1336119 L11.1388607,24.0686733 C10.7600523,24.0686733 10.5057095,23.7493919 10.5057095,23.4328163 L10.5057095,20.0046004 C10.5057095,19.6880248 10.8222851,19.3687435 11.1388607,19.3687435 L12.8543215,19.3038049 C13.1086643,18.4812495 13.4252399,17.6559884 13.8716926,16.8929601 L12.7271501,15.623952 C12.4755131,15.3696092 12.4755131,14.988095 12.7271501,14.7337523 L15.1407007,12.3851403 C15.3950435,12.1307975 15.7738519,12.1307975 16.0309004,12.3851403 L17.2999085,13.5296828 C18.0602311,13.08323 18.888198,12.7017158 19.7107533,12.5123117 L19.7756919,10.7995566 C19.7756919,10.4153366 20.0922675,10.1609939 20.4115489,10.1609939 L23.8397648,10.1609939 C24.1563404,10.1609939 24.4729159,10.4802752 24.4729159,10.7995566 L24.5378545,12.5123117 C25.3631157,12.7666544 26.1883768,13.08323 26.9486993,13.5296828 L28.2204132,12.3851403 C28.474756,12.1307975 28.8535644,12.1307975 29.1079072,12.3851403 L31.5214577,14.7959851 C31.7758005,15.0530336 31.7758005,15.4345478 31.5214577,15.6861848 L30.379621,16.9551929 C30.823368,17.6559884 31.1399436,18.4812495 31.3942864,19.3687435 L31.9679105,19.3687435 L33.1097472,19.4309763 C33.4885556,19.4309763 33.7428984,19.7502576 33.7428984,20.069539 L33.7428984,23.4950491 C33.7428984,23.8116247 33.4263228,24.1336119 33.1097472,24.1336119 L31.3942864,24.1958447 C31.1399436,25.0211058 30.823368,25.8436612 30.379621,26.6093953 L31.5214577,27.8134648 C31.7758005,28.0678075 31.7758005,28.4466159 31.5214577,28.7036645 L29.1079072,31.1172151 C28.8535644,31.3688521 28.474756,31.3688521 28.2204132,31.1172151 Z M22.1243039,25.654257 C24.2835117,25.654257 26.0612054,23.8765633 26.0612054,21.7173555 C26.0612054,19.5608535 24.2835117,17.7831598 22.1243039,17.7831598 C19.9650961,17.7831598 18.1901082,19.5608535 18.1901082,21.7173555 C18.1901082,23.8765633 19.9650961,25.654257 22.1243039,25.654257 Z M11.9800859,7.21602922 C11.9151473,7.01309616 11.8447972,6.73981296 11.7771528,6.60181848 C11.6418641,6.39888541 11.5742197,6.19324658 11.4362252,5.99031351 L18.1086644,3.33324324 C18.2439531,3.74452092 18.3792419,4.22073718 18.6525251,4.56166473 L11.9800859,7.21602922 Z M36.215976,11.8453383 C36.694898,11.7073438 37.1007642,11.5720551 37.4416917,11.369122 L40.1664063,18.1064998 C39.6874843,18.1768499 39.2816182,18.379783 38.9406906,18.6530662 L36.215976,11.8453383 Z M32.3369781,6.12722568 C32.0636949,6.53309182 31.9284062,6.94436949 31.7931175,7.42058575 L24.9177452,4.49293807 C25.1883226,4.08436616 25.3939615,3.67579426 25.4616058,3.199578 L32.3369781,6.12722568 Z M11.0977329,37.3072147 C11.3710161,36.8986428 11.503599,36.4873651 11.6415935,36.081499 L18.5873159,39.0740853 C18.3789713,39.4150128 18.1760382,39.8262905 18.1083939,40.299801 L11.0977329,37.3072147 Z M36.1496845,31.7238497 L39.0746264,24.8484774 C39.415554,25.1217606 39.8241259,25.2543435 40.3003421,25.392338 L37.3726945,32.2677103 C37.0344727,31.9971328 36.6259008,31.8591384 36.1496845,31.7238497 Z M24.9172041,38.9401495 L31.5869375,36.2154348 C31.6545818,36.6267125 31.8575149,37.100223 32.1335039,37.4411505 L25.4610647,40.1658652 C25.3230702,39.7572933 25.1904873,39.281077 24.9172041,38.9401495 Z M6.53417412,31.7238497 C6.33124106,31.791494 6.12830799,31.9267827 5.99031351,31.9971328 L3.33324324,25.392338 C3.74452092,25.3246937 4.22073718,25.1217606 4.56166473,24.8484774 L7.21602922,31.5209166 C6.94274603,31.5858552 6.73981296,31.6562053 6.53417412,31.7238497 Z M7.41950344,11.6418641 L4.49185576,18.5821749 C4.08598963,18.3115975 3.67471195,18.1763088 3.19849569,18.0383143 L6.1964935,11.0952977 C6.53471528,11.3685809 6.94328718,11.5742197 7.41950344,11.6418641 Z" id="Combined-Shape"></path>
                </g>
            </g>
        </g>
    </g>
</svg>