<?xml version="1.0" encoding="UTF-8"?>
<svg width="56px" height="56px" viewBox="0 0 56 56" version="1.1" xmlns="http://www.w3.org/2000/svg" xmlns:xlink="http://www.w3.org/1999/xlink">
    <!-- Generator: Sketch 49.3 (51167) - http://www.bohemiancoding.com/sketch -->
    <title>Page 1</title>
    <desc>Created with Sketch.</desc>
    <defs></defs>
    <g id="Page-1" stroke="none" stroke-width="1" fill="none" fill-rule="evenodd">
        <g id="首页" transform="translate(-1377.000000, -3371.000000)" fill="#1A347E">
            <g id="Group-26" transform="translate(1377.000000, 3371.000000)">
                <g id="Page-1" transform="translate(2.000000, 7.000000)">
                    <path d="M20.1464706,26.5090296 L31.0670588,26.3311321 L30.8905882,15.3252022 L20.1464706,15.4971698 L20.1464706,26.5090296 Z M18.7964706,29.052965 C18.0523529,29.052965 17.4464706,28.4421833 17.4464706,27.6920485 L17.4464706,14.0739892 C17.4464706,13.3238544 18.0523529,12.7130728 18.7964706,12.7130728 L32.3082353,12.7130728 C33.0523529,12.7130728 33.6582353,13.3238544 33.6582353,14.0739892 L33.6582353,27.6920485 C33.6582353,28.4421833 33.0523529,29.052965 32.3082353,29.052965 L18.7964706,29.052965 Z M11.0964706,3.78854447 C9.69352941,3.78854447 8.59352941,4.89447439 8.59352941,6.30876011 L8.59352941,35.5225067 C8.59352941,36.9367925 9.69352941,38.0456873 11.0964706,38.0456873 L40.0082353,38.0456873 C41.4082353,38.0456873 42.5111765,36.9367925 42.5111765,35.5225067 L42.5111765,35.3446092 L42.7523529,35.3446092 L42.5758824,6.30876011 C42.5758824,4.89447439 41.4758824,3.78854447 40.0729412,3.78854447 L11.0964706,3.78854447 Z M11.0964706,40.8297844 C8.19058824,40.8297844 5.82882353,38.4489218 5.82882353,35.5225067 L5.82882353,31.837062 L2.34941176,32.0119946 C1.59058824,32.0119946 0.999411765,31.4160377 0.999411765,30.6510782 C0.999411765,29.9039084 1.60529412,29.2901617 2.34941176,29.2901617 L6.00235294,29.2901617 L5.82882353,22.0319407 L2.34941176,22.2098383 C1.59058824,22.2098383 0.999411765,21.6138814 0.999411765,20.8489218 C0.999411765,20.0987871 1.60529412,19.4880054 2.34941176,19.4880054 L6.00235294,19.4880054 L5.82882353,12.3632075 L2.34941176,12.5381402 C1.60529412,12.5381402 0.999411765,11.9273585 0.999411765,11.1772237 C0.999411765,10.4270889 1.60529412,9.81630728 2.34941176,9.81630728 L6.00235294,9.81630728 L5.82882353,6.30876011 C5.82882353,3.37938005 8.19058824,0.99851752 11.0964706,0.99851752 L40.0082353,0.99851752 C42.9141176,0.99851752 45.2758824,3.37938005 45.2758824,6.30876011 L45.2758824,9.99420485 L48.7552941,9.81630728 C49.4964706,9.81630728 50.1052941,10.4270889 50.1052941,11.1772237 C50.1052941,11.9273585 49.4964706,12.5381402 48.7552941,12.5381402 L45.0994118,12.5381402 L45.2758824,19.7311321 L48.7552941,19.5532345 C49.4964706,19.5532345 50.1052941,20.1640162 50.1052941,20.9141509 C50.1052941,21.6642857 49.4964706,22.2750674 48.7552941,22.2750674 L45.0994118,22.2750674 L45.2758824,29.4680593 L48.7552941,29.2901617 C49.52,29.2901617 50.17,29.9128032 50.17,30.6510782 C50.17,31.4012129 49.5641176,32.0119946 48.82,32.0119946 L45.1670588,32.0119946 L45.3405882,35.5225067 C45.3405882,38.4489218 42.9817647,40.8297844 40.0729412,40.8297844 L11.0964706,40.8297844 Z" id="Fill-1"></path>
                </g>
            </g>
        </g>
    </g>
</svg>